<svg version="1.1" id="Layer_1" xmlns="http://www.w3.org/2000/svg" xmlns:xlink="http://www.w3.org/1999/xlink" x="0px" y="0px"
	 width="575.32px" height="306.455px" viewBox="0 0 575.32 306.455" enable-background="new 0 0 575.32 306.455"
	 xml:space="preserve">
<g style="fill:#999;">
	<path d="M116.655,162.182c-2.938-0.031-6.356,0.094-9.394,0.062c0.282,2.818,0.681,4.609,0.873,7.293
		c3.439,0.057,6.278,0.105,9.719,0.164L116.655,162.182z"/><path d="M432.439,262.439c-0.608,2.129-1.17,4.086-1.799,6.283c4.267-0.758,8.09-1.445,12.062-2.143l1.942-6.238
		c-1.735,0.299-5.387,0.926-7.298,1.254C435.862,261.852,434.196,262.139,432.439,262.439z"/><path d="M428.93,279.67c3.703-0.695,7.161-1.348,11.013-2.07l1.678-5.375c-3.093,0.564-8.256,1.512-11.151,2.041
		C429.921,276.156,429.424,277.871,428.93,279.67z"/>
	<path d="M433.651,255.619c4.114-0.68,7.739-1.277,11.476-1.895c0.754-2.457,1.496-4.877,2.264-7.373
		c-4.093,0.646-8.019,1.27-11.62,1.838C435.052,250.709,434.349,253.178,433.651,255.619z"/>
	<path d="M345.516,127.291v14.57c4.007,0,7.465-0.001,11.033-0.001c0-3.442,0-6.719,0-9.913v-4.656
		C353.329,127.286,348.47,127.291,345.516,127.291z"/>
	<path d="M436.418,240.463c4.414-0.666,8.148-1.217,12.34-1.85c0.698-2.281,2.352-7.705,2.671-8.752
		c-4.27,0.607-8.583,1.223-12.522,1.781C438.064,234.629,437.246,237.529,436.418,240.463z"/>
	<path d="M338.199,227.953v10.129c3.412,0,6.488-0.018,9.718,0l0.008-10.129h-5.844H338.199z"/>
	<rect x="340.524" y="205.588" width="9.012" height="11.32"/>
	<path d="M342.507,193.947c3.343,0,6.197,0.018,9.424,0.018v-12.617h-9.424V193.947z"/>
	<path d="M464.404,236.244c4.172-0.629,7.703-1.15,11.669-1.748c0.796-2.238,2.685-7.553,3.049-8.578
		c-4.034,0.576-8.111,1.156-11.832,1.686C466.312,230.527,465.364,233.369,464.404,236.244z"/>
	<path d="M473.744,161.291c1.399-0.072,4.341-0.227,5.059-0.264l0.252-5.654c-1.671,0.088-3.542,0.184-5.059,0.264
		C473.934,156.914,473.826,159.42,473.744,161.291z"/>
	<path d="M485.035,247.047c3.71-0.615,6.979-1.154,10.351-1.711c0.949-2.373,1.887-4.707,2.853-7.117
		c-3.688,0.584-7.223,1.143-10.466,1.656C486.846,242.305,485.936,244.686,485.035,247.047z"/>
	<path d="M337.209,256.852h9.07l0.003-9.162h-9.095C337.188,250.869,337.188,253.773,337.209,256.852z"/>
	<path d="M476.246,198.635c5.3-0.604,9.827-1.119,14.455-1.646c0.949-2.654,1.861-5.205,2.758-7.715l1.322-3.695
		c-4.238,0.428-10.713,1.096-14.691,1.504C478.784,191.008,477.533,194.768,476.246,198.635z"/>
	<path d="M521.349,234.564c-3.511,0.555-6.873,1.088-9.961,1.574c-1.012,2.389-2.006,4.729-2.991,7.049
		c3.532-0.584,6.646-1.098,9.855-1.627C519.285,239.225,520.3,236.932,521.349,234.564z"/>
	<path d="M479.533,144.312c-1.67,0.086-3.543,0.184-5.06,0.262c-0.068,1.468-0.193,4.347-0.286,6.497
		c1.397-0.072,4.339-0.225,5.06-0.262L479.533,144.312z"/>
	<path d="M501.866,256.072c3.692-0.656,7.003-1.254,10.443-1.855l2.634-5.947c-1.501,0.256-4.656,0.799-6.309,1.082
		c-1.285,0.221-2.721,0.469-4.238,0.729C503.54,252.107,502.751,253.975,501.866,256.072z"/>
	<path d="M530.325,218.629c-3.617,0.516-7.271,1.035-10.607,1.51c-1.2,2.809-2.367,5.541-3.549,8.305
		c3.746-0.566,6.918-1.033,10.48-1.57C527.608,224.721,529.889,219.613,530.325,218.629z"/>
	<path d="M490.67,232.285c3.953-0.598,7.3-1.088,11.058-1.656c0.882-2.193,2.976-7.406,3.379-8.41
		c-3.82,0.543-7.681,1.094-11.205,1.596C492.81,226.68,491.744,229.467,490.67,232.285z"/>
	<path d="M504.626,195.402c4.994-0.568,9.265-1.055,13.629-1.553c1.05-2.592,2.059-5.082,3.048-7.531l1.461-3.607
		c-3.991,0.404-10.091,1.035-13.834,1.418C507.467,187.957,506.067,191.629,504.626,195.402z"/>
	<path d="M344.25,155.273v13.25c2.152,0,7.523-0.004,10.146-0.004c0-4.387-0.031-8.814-0.031-13.246H344.25z"/>
	<path d="M298.116,227.953v10.129c3.41,0,6.488-0.018,9.716,0l0.01-10.129h-5.845H298.116z"/>
	<path d="M278.14,227.953v10.129c3.41,0,6.487-0.018,9.717,0l0.008-10.129h-5.844H278.14z"/>
	<path d="M297.594,256.852h9.069l0.003-9.162h-9.095C297.571,250.869,297.571,253.773,297.594,256.852z"/>
	<path d="M277.85,256.852h9.069l0.003-9.162h-9.096C277.826,250.869,277.826,253.773,277.85,256.852z"/>
	<rect x="297.571" y="265.531" width="8.276" height="8.244"/>
	<path d="M287.81,131.947v-4.656c-3.217-0.005-8.078,0-11.03,0v14.57c4.004,0,7.462-0.001,11.03-0.001
		C287.81,138.418,287.81,135.141,287.81,131.947z"/>
	<path d="M286.761,193.965v-12.617h-9.421v12.6C280.682,193.947,283.534,193.965,286.761,193.965z"/>
	<rect x="336.366" y="265.531" width="8.278" height="8.244"/>
	<rect x="278.446" y="265.531" width="8.276" height="8.244"/>
	<rect x="277.269" y="205.588" width="9.012" height="11.32"/>
	<path d="M320.915,193.947c3.342,0,6.195,0.018,9.423,0.018v-12.617h-9.423V193.947z"/>
	<path d="M321.867,155.273v13.25c2.15,0,7.521-0.004,10.144-0.004c0-4.387-0.031-8.814-0.031-13.246H321.867z"/>
	<rect x="319.482" y="205.588" width="9.012" height="11.32"/>
	<rect x="298.86" y="205.588" width="9.013" height="11.32"/>
	<path d="M323.039,127.291v14.57c4.005,0,7.463-0.001,11.031-0.001c0-3.442,0-6.719,0-9.913v-4.656
		C330.852,127.286,325.992,127.291,323.039,127.291z"/>
	<path d="M299.202,155.273v13.25c2.151,0,7.523-0.004,10.145-0.004c0-4.387-0.031-8.814-0.031-13.246H299.202z"/>
	<path d="M318.427,227.953v10.129c3.41,0,6.486-0.018,9.716,0l0.008-10.129h-5.844H318.427z"/>
	<path d="M298.859,193.947c3.342,0,6.198,0.018,9.424,0.018v-12.617h-9.424V193.947z"/>
	<rect x="317.609" y="265.531" width="8.276" height="8.244"/>
	<path d="M454.381,152.098c1.396-0.073,4.337-0.226,5.058-0.263l0.286-6.497c-1.67,0.086-3.541,0.184-5.059,0.261
		C454.597,147.068,454.472,149.949,454.381,152.098z"/>
	<path d="M470.944,280.521c3.195-0.629,6.178-1.217,9.041-1.781c0.614-1.551,1.195-3.02,1.791-4.52
		c-3.105,0.6-6.038,1.164-9.11,1.756C472.051,277.598,471.49,279.074,470.944,280.521z"/>
	<path d="M458.039,258.043c-0.703,2.094-1.351,4.02-2.077,6.184c4.059-0.723,7.694-1.377,11.476-2.039l2.202-6.139
		c-1.65,0.283-5.122,0.881-6.939,1.193C461.288,257.484,459.707,257.756,458.039,258.043z"/>
	<path d="M461.733,243.992c-0.825,2.477-1.636,4.902-2.438,7.305c3.91-0.646,7.355-1.215,10.909-1.801
		c0.855-2.418,1.698-4.795,2.567-7.248C468.883,242.861,465.156,243.453,461.733,243.992z"/>
	<path d="M474.54,271.094c3.38-0.637,6.536-1.23,10.054-1.893l2.085-5.225c-2.823,0.516-7.531,1.379-10.171,1.859
		C475.812,267.676,475.179,269.342,474.54,271.094z"/>
	<path d="M486.025,253.234c-1.347,0.232-2.854,0.492-4.445,0.766c-0.782,2.061-1.502,3.955-2.312,6.086
		c3.87-0.688,7.339-1.314,10.944-1.945l2.43-6.041C491.067,252.371,487.758,252.938,486.025,253.234z"/>
	<path d="M443.181,162.873c1.397-0.072,4.341-0.225,5.061-0.262l0.25-5.654c-1.67,0.086-3.541,0.184-5.058,0.262
		C443.372,158.498,443.263,161.004,443.181,162.873z"/>
	<path d="M443.624,152.655c1.397-0.072,4.339-0.225,5.058-0.262l0.286-6.497c-1.667,0.086-3.539,0.184-5.058,0.262
		C443.842,147.626,443.717,150.505,443.624,152.655z"/>
	<path d="M440.098,222.543c2.937-0.395,10.201-1.365,13.708-1.834c0.98-3.227,1.942-6.516,2.958-9.852
		c-4.694,0.58-9.197,1.139-13.881,1.719C441.931,215.984,440.999,219.324,440.098,222.543z"/>
	<path d="M451.91,275.35c3.538-0.666,6.844-1.287,10.523-1.98l1.889-5.301c-2.954,0.541-7.885,1.443-10.652,1.949
		C453.044,271.885,452.479,273.574,451.91,275.35z"/>
	<path d="M492.545,276.266c3.057-0.602,5.911-1.164,8.648-1.705c0.667-1.529,1.302-2.977,1.949-4.457
		c-2.968,0.572-5.772,1.113-8.71,1.68C493.76,273.381,493.146,274.838,492.545,276.266z"/>
	<path d="M539.853,224.871c3.559-0.535,6.571-0.98,9.957-1.49l3.936-8.086c-3.436,0.488-6.906,0.982-10.071,1.434
		C542.383,219.482,541.124,222.16,539.853,224.871z"/>
	<path d="M525.598,246.438c-0.92,2-1.768,3.836-2.721,5.902c3.53-0.627,6.698-1.199,9.987-1.773l2.816-5.859
		c-1.437,0.246-4.452,0.766-6.032,1.035C528.422,245.953,527.047,246.189,525.598,246.438z"/>
	<path d="M531.094,239.438c3.365-0.555,6.329-1.045,9.39-1.551c1.106-2.293,2.195-4.549,3.315-6.875
		c-3.341,0.529-6.544,1.037-9.48,1.5C533.227,234.857,532.156,237.158,531.094,239.438z"/>
	<path d="M574.333,171.934v-1.625c-20.596-3.441-40.226-6.975-60.452-10.355
		c1.818-10.149,7.114-42.505,13.521-112.185c-2.084,0-60.502-3.266-61.034-3.503V29.388c-2.253,0-36.205-1.593-39.236-1.627
		l-0.355,14.684c-5.283,0.039-9.841-0.27-13.701-0.242c-1.463,0.085-2.764,0.268-4.093,0.763
		c-11.546,4.303-23.122,8.557-34.69,12.823c-5.345,1.971-10.691,3.936-15.802,5.817c-0.951,6.447-1.869,12.675-2.786,18.904
		c-0.304-0.012-0.176-0.007-0.479-0.019V59.776c-9.896,0.053-11.434-0.18-23.219-0.234V37.911h-14.978
		c0-2.278-0.035-35.846-0.054-37.911h-19.083l-0.039,10.755c-1.642,0-3.316,0.036-4.912,0.036V28.5h5.043
		c0,1.457,0.01,7.496,0.01,9.093h-15.718l0.003,22.136h-23.783v24.452h-19.129v21.822h-15.609c0,0.921,4.7,95.468,4.669,97.962
		c-0.004,0.412,0.056,1.141,0.056,1.623c0,0.133-14.373-0.023-14.373-0.023c-0.677-2.098-7.532-23.791-7.722-25.646
		c-1.505-12.914-4.38-48.927-4.127-52.979c-1.701,0-77.217-0.808-77.999-0.808c-0.04,0.492,3.255,25.835,3.277,27.33
		c-0.985,0-17.726-0.668-17.887-0.769c-0.128-2.591-7.004-43.733-7.484-45.618c-1.852,0-101.397-2.423-102.167-2.423
		c0,0.7,3.703,177.523,5.88,180.144H9.3c-1.341-1.58-5.71-177.443-5.71-177.721c12.517,0.304,93.474,2.575,95.602,2.575
		c0.571,2.764,7.573,44.103,7.657,45.216c1.567,0.109,20.854,0.986,23.679,1.072c0-0.83-2.951-26.286-2.951-27.283
		c0.786,0,70.425,0.859,71.117,0.859c0,0.987,4.053,48.643,4.597,50.817c0.92,3.68,3.049,10.312,8.007,27.309h20.625
		c0-0.725-4.381-95.134-4.778-99.096h15.541V86.712h18.741c0-2.146-0.031-22.543-0.031-24.818h24.267V40.022
		c4.172,0,12.893,0,15.543,0.018V26.341h-5.203c-0.018-2.057,0.114-9.73,0.011-13.39c1.707-0.016,2.904-0.015,4.668,0l0.022-10.027
		c0-0.537,0-0.537,2.073-0.521c2.896,0.02,5.795-0.019,8.691-0.001c2.743-0.024,2.743-0.024,2.729,0.479
		c-0.01,0.307,0.011,36.181,0.011,37.109H328.9c-0.034,3.099,0.188,20.025-0.051,22.25h22.67
		c0.249,10.342,0.356,22.529,0.356,24.293h5.995c0.762-4.484,3.181-21.375,3.296-23.21c6.853-2.519,13.732-5.044,20.609-7.58
		c9.272-3.418,18.548-6.828,27.792-10.286c1.33-0.498,2.629-0.734,4.107-0.724c5.611-0.245,11.048,0.173,16.623,0.014
		c0.066-2,0.283-12.259,0.315-14.516c2.91,0.075,26.524,1.006,32.492,1.176c0.071,5.203,0.021,10.216,0.041,15.473
		c0.804,0,53.248,2.767,60.836,3.04c-0.25,2.527-13.682,109.827-14.129,112.269c20.264,3.246,40.563,6.5,60.852,9.75
		c0.381,0.762,0.217,1.479,0.218,2.176c0.013,10.836,3.955,123.912-1.057,132.34h3.197
		C577.246,299.336,574.333,183.91,574.333,171.934z"/>
	<path d="M511.922,272.447c2.931-0.578,5.672-1.115,8.299-1.637c0.717-1.51,1.394-2.939,2.086-4.4
		c-2.853,0.549-5.541,1.068-8.361,1.611C513.224,269.6,512.564,271.039,511.922,272.447z"/>
	<path d="M507.643,280.305c2.772-0.566,5.405-1.104,8.412-1.719l1.75-3.709c-2.368,0.48-6.157,1.236-8.475,1.703
		C508.689,277.982,508.205,279.045,507.643,280.305z"/>
	<path d="M498.197,261.867c-0.762,1.812-1.451,3.455-2.152,5.18c3.232-0.607,6.25-1.176,9.617-1.809l2.26-5.15
		C505.224,260.582,500.721,261.406,498.197,261.867z"/>
	<path d="M516.985,263.109c3.093-0.582,5.981-1.125,9.201-1.729l2.422-5.08c-2.581,0.473-6.887,1.26-9.3,1.701
		C518.488,259.791,517.745,261.408,516.985,263.109z"/>
	<path d="M444.178,139.846c1.397-0.072,4.34-0.224,5.058-0.261l0.288-6.549c-1.668,0.086-3.539,0.183-5.058,0.262
		C444.397,134.777,444.272,137.68,444.178,139.846z"/>
	<path d="M464.188,161.785c1.397-0.072,4.338-0.225,5.059-0.264l0.249-5.652c-1.668,0.086-3.539,0.184-5.058,0.262
		C464.377,157.41,464.269,159.914,464.188,161.785z"/>
	<path d="M474.741,138.264c1.397-0.073,4.338-0.227,5.059-0.263l0.289-6.548c-1.67,0.086-3.541,0.183-5.059,0.26
		C474.961,133.195,474.836,136.097,474.741,138.264z"/>
	<path d="M478.999,110.417c1.397-0.071,4.339-0.224,5.059-0.262l0.311-7.064c-1.669,0.086-3.54,0.183-5.059,0.261
		C479.236,104.949,479.1,108.081,478.999,110.417z"/>
	<path d="M446.371,126.153c1.397-0.073,4.339-0.226,5.058-0.263l0.311-7.065c-1.667,0.087-3.539,0.184-5.058,0.263
		C446.607,120.685,446.472,123.815,446.371,126.153z"/>
	<path d="M469.44,110.913c1.399-0.072,4.34-0.225,5.059-0.262l0.312-7.065c-1.67,0.086-3.542,0.184-5.061,0.262
		C469.678,105.444,469.543,108.575,469.44,110.913z"/>
	<path d="M488.556,109.922c1.398-0.072,4.341-0.225,5.059-0.263l0.312-7.064c-1.668,0.086-3.541,0.184-5.058,0.262
		C488.793,104.454,488.658,107.585,488.556,109.922z"/>
	<path d="M465.184,138.759c1.397-0.073,4.339-0.226,5.058-0.263l0.289-6.548c-1.668,0.086-3.539,0.183-5.059,0.261
		C465.402,133.689,465.277,136.592,465.184,138.759z"/>
	<path d="M484.3,137.768c1.397-0.072,4.339-0.225,5.057-0.262l0.289-6.548c-1.669,0.086-3.54,0.183-5.059,0.261
		C484.52,132.699,484.394,135.602,484.3,137.768z"/>
	<path d="M489.09,143.817c-1.669,0.086-3.541,0.185-5.059,0.263c-0.069,1.468-0.193,4.346-0.286,6.497
		c1.397-0.073,4.34-0.225,5.059-0.263L489.09,143.817z"/>
	<path d="M486.492,124.075c1.397-0.073,4.34-0.226,5.059-0.263l0.311-7.065c-1.668,0.087-3.54,0.184-5.059,0.262
		C486.729,118.607,486.594,121.737,486.492,124.075z"/>
	<path d="M476.935,124.57c1.398-0.073,4.341-0.226,5.058-0.263l0.312-7.065c-1.67,0.087-3.541,0.184-5.059,0.263
		C477.171,119.102,477.036,122.232,476.935,124.57z"/>
	<path d="M453.938,162.316c1.397-0.072,4.34-0.225,5.059-0.262l0.251-5.654c-1.672,0.086-3.541,0.184-5.059,0.262
		C454.127,157.939,454.019,160.447,453.938,162.316z"/>
	<path d="M464.629,151.566c1.398-0.071,4.341-0.225,5.059-0.262l0.286-6.497c-1.669,0.086-3.541,0.184-5.059,0.263
		C464.847,146.538,464.722,149.417,464.629,151.566z"/>
	<path d="M444.753,202.221c5.646-0.643,10.468-1.191,15.396-1.752c0.83-2.725,1.628-5.34,2.412-7.916l1.155-3.795
		c-4.52,0.459-11.426,1.17-15.671,1.605C446.925,194.395,445.854,198.254,444.753,202.221z"/>
	<path d="M448.436,112c1.397-0.072,4.339-0.225,5.059-0.263l0.311-7.064c-1.669,0.086-3.54,0.185-5.059,0.262
		C448.673,106.533,448.536,109.663,448.436,112z"/>
	<rect x="259.694" y="265.531" width="8.276" height="8.244"/>
	<path d="M483.303,160.795c1.397-0.072,4.341-0.225,5.059-0.262l0.252-5.654c-1.671,0.086-3.543,0.184-5.059,0.262
		C483.493,156.42,483.385,158.924,483.303,160.795z"/>
	<path d="M457.126,125.596c1.398-0.072,4.341-0.225,5.059-0.263l0.312-7.064c-1.67,0.086-3.541,0.184-5.059,0.262
		C457.363,120.128,457.229,123.259,457.126,125.596z"/>
	<path d="M459.19,111.443c1.397-0.072,4.34-0.225,5.06-0.262l0.31-7.065c-1.667,0.086-3.538,0.184-5.059,0.262
		C459.428,105.975,459.292,109.106,459.19,111.443z"/>
	<path d="M76.751,252.312c-1.143-2.523-2.201-4.871-3.266-7.227c-1.848-0.521-3.563-1.006-5.336-1.508
		c1.096,2.488,2.113,4.797,3.127,7.098C73.183,251.246,74.99,251.787,76.751,252.312z"/>
	<path d="M21.918,202.271c-0.624-0.143-1.318-0.301-2.044-0.465c0.823,2.617,1.593,5.074,2.479,7.893
		c1.841,0.453,3.514,0.855,5.295,1.307l-2.608-8.023C24.288,202.811,22.726,202.455,21.918,202.271z"/>
	<path d="M36.779,124.059c-1.781-0.175-4.447-0.425-6.05-0.578c0.628,3.813,1.249,7.573,1.905,11.557
		c2.241,0.274,4.194,0.514,6.229,0.764c-0.501-2.827-0.974-5.487-1.429-8.052L36.779,124.059z"/>
	<path d="M42.779,250.562c0.813,2.322,1.437,4.107,2.198,6.264c1.805,0.588,3.545,1.154,5.563,1.812l-2.297-6.371
		C46.694,251.791,44.249,251.02,42.779,250.562z"/>
	<path d="M18.127,184.83c-1.562-0.262-3.034-0.506-4.366-0.729c0.796,2.812,1.596,5.635,2.405,8.49
		c1.583,0.301,2.999,0.568,4.483,0.848C19.789,190.504,18.962,187.68,18.127,184.83z"/>
	<path d="M40.412,236.945c-1.534-0.434-2.962-0.836-4.438-1.254c0.813,2.217,1.565,4.27,2.317,6.316
		c1.58,0.473,3.078,0.92,4.538,1.357C41.983,241.123,41.199,239.041,40.412,236.945z"/>
	<path d="M23.456,122.785c-1.674-0.165-4.173-0.399-5.678-0.543c0.509,3.685,1.011,7.315,1.542,11.161
		c2.1,0.256,3.931,0.481,5.834,0.716c-0.407-2.727-0.792-5.294-1.165-7.771L23.456,122.785z"/>
	<path d="M21.703,145.671c1.065,3.194,2.138,6.412,3.201,9.596c1.158,0.168,4.082,0.588,5.525,0.795
		c-1.133-3.275-2.273-6.533-3.382-9.744C25.206,146.096,23.473,145.886,21.703,145.671z"/>
	<path d="M31.368,176.574c1.814,0.289,3.38,0.553,5.162,0.838c-0.89-2.525-2.934-8.318-3.318-9.404
		c-1.732-0.238-3.457-0.473-5.001-0.684C29.252,170.375,30.29,173.418,31.368,176.574z"/>
	<path d="M17.256,165.828c0.933,2.953,1.864,5.896,2.829,8.947c1.709,0.271,3.185,0.521,4.862,0.787
		c-0.798-2.439-2.63-8.039-2.973-9.09C20.338,166.25,18.714,166.027,17.256,165.828z"/>
	<path d="M28.075,219.156c0.804,2.41,1.544,4.637,2.351,7.025c1.615,0.467,3.149,0.908,4.884,1.41l-2.452-7.141
		C31.509,220.084,29.295,219.486,28.075,219.156z"/>
	<path d="M118.787,176.773c-2.828-0.064-6.118,0.004-9.042-0.064c0.25,2.602,0.624,4.254,0.791,6.732
		c3.312,0.098,6.047,0.178,9.361,0.277L118.787,176.773z"/>
	<path d="M121.151,188.883c-2.739-0.096-5.927-0.068-8.76-0.166c0.224,2.428,0.572,3.973,0.715,6.285
		c3.211,0.129,5.863,0.236,9.073,0.363L121.151,188.883z"/>
	<path d="M124.598,200.123c-2.661-0.117-5.764-0.127-8.518-0.25c0.191,2.273,0.512,3.725,0.627,5.893
		c3.124,0.156,5.702,0.283,8.827,0.439L124.598,200.123z"/>
	<path d="M86.66,262.201c1.242,2.732,2.197,4.832,3.362,7.373c2.322,0.758,4.564,1.488,7.167,2.336l-3.518-7.521
		C91.682,263.775,88.543,262.789,86.66,262.201z"/>
	<path d="M59.172,254.947c-1.642-0.506-4.238-1.322-5.797-1.811c0.903,2.416,1.599,4.27,2.446,6.512
		c1.917,0.623,3.765,1.227,5.908,1.926L59.172,254.947z"/>
	<path d="M60.073,270.803c0.798,2.18,1.537,4.195,2.319,6.334c1.049,0.371,1.903,0.686,2.774,1
		c0.978,0.354,1.895,0.684,2.958,1.066l-2.432-6.459C64.252,272.244,61.604,271.334,60.073,270.803z"/>
	<path d="M45.792,238.447c0.895,2.299,1.724,4.428,2.551,6.553c1.677,0.5,3.266,0.975,4.813,1.438
		c-0.929-2.324-1.793-4.488-2.663-6.662C48.867,239.316,47.355,238.889,45.792,238.447z"/>
	<path d="M267.77,247.689h-9.095c0,3.18,0,6.084,0.023,9.162h9.069L267.77,247.689z"/>
	<path d="M75.104,258.943c1.124,2.623,1.985,4.641,3.041,7.08c2.182,0.711,4.288,1.396,6.731,2.193L81.695,261
		C79.827,260.424,76.874,259.496,75.104,258.943z"/>
	<path d="M46.67,148.697c1.331,3.421,2.672,6.87,4.001,10.288c1.313,0.188,4.629,0.664,6.266,0.9
		c-1.415-3.52-2.841-7.015-4.225-10.456C50.632,149.176,48.672,148.939,46.67,148.697z"/>
	<path d="M33.707,146.718c1.345,3.594,2.699,7.215,4.042,10.803c1.261,0.18,4.443,0.637,6.013,0.859
		c-1.425-3.689-2.86-7.359-4.253-10.972C37.511,147.17,35.628,146.947,33.707,146.718z"/>
	<path d="M55.969,217.818c2.21,0.545,4.222,1.027,6.363,1.572l-3.587-8.971c-0.903-0.205-2.776-0.633-3.743-0.852
		c-0.749-0.17-1.58-0.359-2.448-0.559C53.685,211.93,54.748,214.672,55.969,217.818z"/>
	<path d="M46.464,189.443c1.103,3.111,2.21,6.236,3.333,9.404c1.897,0.359,3.596,0.68,5.375,1.016
		c-1.191-3.262-2.337-6.395-3.492-9.553C49.813,190,48.054,189.707,46.464,189.443z"/>
	<path d="M40.128,168.953c1.165,3.158,2.326,6.311,3.533,9.582c1.932,0.309,3.601,0.588,5.5,0.891
		c-0.997-2.619-3.283-8.621-3.71-9.746C43.605,169.426,41.773,169.178,40.128,168.953z"/>
	<path d="M47.159,207.939c-0.847-0.193-2.606-0.596-3.517-0.803c-0.703-0.158-1.484-0.336-2.303-0.523
		c1.019,2.814,1.973,5.453,3.072,8.482c2.077,0.512,3.962,0.965,5.972,1.475L47.159,207.939z"/>
	<path d="M72.45,229.789c1.212,2.809,2.334,5.404,3.552,8.195c2.073,0.598,4.04,1.166,6.271,1.811l-3.71-8.352
		C76.836,230.977,74.007,230.211,72.45,229.789z"/>
	<path d="M11.822,121.672c-1.58-0.156-3.94-0.377-5.362-0.514c0.41,3.573,0.813,7.092,1.24,10.817
		c1.981,0.244,3.707,0.455,5.505,0.677c-0.334-2.641-0.646-5.127-0.947-7.526L11.822,121.672z"/>
	<path d="M45.981,230.529l-2.712-7.404c-1.43-0.387-3.772-1.021-5.063-1.371c0.888,2.498,1.707,4.805,2.598,7.281
		C42.516,229.531,44.141,229.998,45.981,230.529z"/>
	<path d="M89.255,255.787c-1.26-2.631-2.431-5.078-3.608-7.531c-1.967-0.557-3.796-1.074-5.685-1.607
		c1.209,2.59,2.332,4.994,3.451,7.393C85.447,254.648,87.376,255.227,89.255,255.787z"/>
	<path d="M32.072,204.504c-0.662-0.148-1.398-0.316-2.169-0.492c0.917,2.713,1.776,5.26,2.765,8.182
		c1.956,0.482,3.733,0.908,5.624,1.391l-2.905-8.326C34.588,205.078,32.929,204.701,32.072,204.504z"/>
	<path d="M52.54,170.646c1.299,3.273,2.596,6.541,3.94,9.934c2.061,0.33,3.842,0.625,5.866,0.949
		c-1.112-2.717-3.661-8.943-4.139-10.109C56.242,171.152,54.293,170.887,52.54,170.646z"/>
	<path d="M127.277,210.701c-2.588-0.137-5.602-0.18-8.279-0.326c0.165,2.133,0.466,3.5,0.557,5.531
		c3.037,0.18,5.544,0.326,8.58,0.506L127.277,210.701z"/>
	<path d="M49.669,125.292c-1.895-0.185-4.721-0.451-6.421-0.614c0.751,3.939,1.493,7.825,2.278,11.942
		c2.381,0.292,4.456,0.547,6.619,0.812c-0.597-2.925-1.158-5.674-1.698-8.326L49.669,125.292z"/>
	<path d="M58.866,191.508c1.23,3.227,2.465,6.467,3.718,9.758c2.022,0.381,3.835,0.725,5.735,1.084
		c-1.331-3.387-2.608-6.641-3.895-9.918C62.435,192.1,60.559,191.789,58.866,191.508z"/>
	<path d="M68.104,212.186c-0.795-0.182-1.679-0.383-2.605-0.594c1.255,3.031,2.435,5.879,3.789,9.15
		c2.356,0.582,4.497,1.096,6.781,1.676l-3.982-9.326C71.128,212.875,69.134,212.42,68.104,212.186z"/>
	<path d="M57.864,233.555l-3.009-7.695c-1.521-0.412-4.009-1.088-5.382-1.459c0.986,2.594,1.896,4.99,2.885,7.564
		C54.178,232.49,55.907,232.988,57.864,233.555z"/>
	<path d="M63.983,249.365c-1.028-2.418-1.981-4.666-2.94-6.924c-1.728-0.49-3.338-0.945-4.997-1.414
		c0.988,2.387,1.904,4.602,2.815,6.809C60.646,248.369,62.336,248.873,63.983,249.365z"/>
	<path d="M65.881,228.381c-1.727-0.469-4.556-1.232-6.112-1.654c1.212,2.809,2.334,5.404,3.553,8.195
		c2.072,0.6,4.039,1.166,6.269,1.811L65.881,228.381z"/>
	<path d="M19.606,155.26c-1.151-3.442-2.311-6.866-3.44-10.241c-1.768-0.21-3.434-0.409-5.136-0.611
		c1.088,3.36,2.183,6.743,3.268,10.09C15.412,154.658,18.22,155.061,19.606,155.26z"/>
	<path d="M64.303,256.33c1.006,2.516,1.78,4.447,2.725,6.783c2.044,0.668,4.014,1.309,6.3,2.055l-2.851-6.91
		C68.728,257.719,65.962,256.85,64.303,256.33z"/>
	<path d="M181.273,157.285c1.781,0.061,2.423,0.082,4.496,0.15v-6.518c-0.154,0.003-3.458-0.114-4.496-0.149V157.285
		z"/>
	<path d="M176.704,254.875c0.268,2.881,0.381,4.225,0.697,6.527c2.73,0.289,5.704,0.34,8.704,0.67
		c-0.266-1.967-0.887-5.32-1.043-6.811L176.704,254.875z"/>
	<path d="M185.769,137.968c-0.154,0.004-3.458-0.113-4.496-0.148v6.518c1.781,0.06,2.423,0.081,4.496,0.15V137.968z"
		/>
	<path d="M200.262,242.113l-9.151-0.217c0.151,3.248,0.208,4.764,0.44,7.352c2.976,0.258,6.231,0.24,9.501,0.537
		C200.866,247.572,200.356,243.797,200.262,242.113z"/>
	<path d="M163.336,266.395c0.369,2.637,0.531,3.867,0.92,5.979c2.547,0.303,5.308,0.391,8.103,0.734
		c-0.331-1.803-1.052-4.877-1.26-6.24L163.336,266.395z"/>
	<path d="M203,256.402l-8.804-0.383c0.113,2.973,0.151,4.359,0.349,6.734c2.866,0.293,6.001,0.342,9.147,0.678
		C203.53,261.404,203.075,257.943,203,256.402z"/>
	<path d="M182.297,241.59l-8.663-0.23c0.32,3.143,0.458,4.607,0.82,7.111c2.829,0.254,5.907,0.244,9.018,0.535
		C183.168,246.865,182.479,243.217,182.297,241.59z"/>
	<path d="M170.456,156.926c1.781,0.059,2.422,0.08,4.496,0.148v-6.519c-0.154,0.004-3.459-0.114-4.496-0.149V156.926
		z"/>
	<path d="M174.952,137.607c-0.154,0.004-3.459-0.114-4.496-0.149v6.518c1.781,0.059,2.422,0.081,4.496,0.15V137.607z
		"/>
	<path d="M168.146,254.291l-8.01-0.357c0.417,2.842,0.599,4.168,1.03,6.438c2.625,0.277,5.469,0.32,8.354,0.637
		C169.158,259.07,168.378,255.762,168.146,254.291z"/>
	<path d="M264.702,155.273h-10.112v13.25c2.152,0,7.522-0.004,10.144-0.004
		C264.733,164.133,264.702,159.705,264.702,155.273z"/>
	<path d="M265.059,181.348h-9.423v12.6c3.342,0,6.197,0.018,9.423,0.018V181.348z"/>
	<rect x="256.864" y="205.73" width="9.012" height="11.32"/>
	<path d="M267.188,238.082l0.008-10.129h-5.844h-3.88v10.129C260.881,238.082,263.958,238.064,267.188,238.082z"/>
	<path d="M140.417,155.922c1.781,0.059,2.424,0.08,4.497,0.148v-6.518c-0.155,0.004-3.458-0.113-4.497-0.148V155.922
		z"/>
	<path d="M220.859,257.725l-9.219-0.414c-0.067,3.021-0.11,4.428-0.05,6.838c2.988,0.307,6.274,0.363,9.557,0.715
		C221.103,262.805,220.841,259.289,220.859,257.725z"/>
	<path d="M219.712,243.031l-9.588-0.244c-0.037,3.305-0.068,4.844,0.018,7.473c3.104,0.271,6.52,0.262,9.933,0.57
		C220.012,248.58,219.709,244.742,219.712,243.031z"/>
	<path d="M196.671,268.82c0.087,2.748,0.116,4.029,0.286,6.227c2.769,0.322,5.798,0.42,8.833,0.787
		c-0.142-1.877-0.559-5.08-0.621-6.504L196.671,268.82z"/>
	<path d="M214.542,270.367c-0.076,2.787-0.124,4.084-0.076,6.311c2.877,0.334,6.043,0.445,9.203,0.826
		c-0.036-1.904-0.276-5.15-0.255-6.594L214.542,270.367z"/>
	<path d="M264.872,131.947v-4.656c-3.218-0.005-8.078,0-11.03,0v14.57c4.004,0,7.462-0.001,11.03-0.001
		C264.872,138.418,264.872,135.141,264.872,131.947z"/>
	<path d="M130.253,219.791c-2.525-0.156-5.47-0.225-8.083-0.387c0.139,2.016,0.418,3.309,0.488,5.232
		c2.966,0.197,5.415,0.359,8.38,0.557L130.253,219.791z"/>
	<path d="M124.644,228.064c0.122,1.906,0.384,3.131,0.436,4.951c2.896,0.213,5.283,0.389,8.177,0.604l-0.728-5.113
		C130.069,228.334,127.195,228.242,124.644,228.064z"/>
	<path d="M143.638,212.146c-2.659-0.145-5.764-0.191-8.515-0.342c0.055,2.15,0.292,3.527,0.275,5.574
		c3.12,0.186,5.695,0.34,8.814,0.523L143.638,212.146z"/>
	<path d="M151.077,275.236c0.453,2.451,0.653,3.596,1.106,5.561c2.394,0.312,4.982,0.424,7.61,0.775
		c-0.385-1.678-1.188-4.541-1.439-5.809L151.077,275.236z"/>
	<path d="M144.914,136.604c-0.155,0.004-3.458-0.114-4.497-0.149v6.518c1.781,0.06,2.424,0.081,4.497,0.15V136.604z"
		/>
	<path d="M127.391,177.811c0.12,2.629,0.416,4.301,0.455,6.801c3.412,0.105,6.229,0.189,9.643,0.293l-0.771-7.018
		C133.803,177.816,130.405,177.883,127.391,177.811z"/>
	<path d="M133.011,207.154c3.211,0.16,5.865,0.295,9.073,0.455l-0.632-6.135c-2.74-0.123-5.936-0.137-8.77-0.266
		C132.756,203.502,133.009,204.969,133.011,207.154z"/>
	<path d="M146.727,226.754l-0.515-5.443c-2.593-0.162-5.624-0.234-8.308-0.402c0.035,2.029,0.253,3.332,0.221,5.268
		C141.17,226.381,143.684,226.549,146.727,226.754z"/>
	<path d="M129.478,189.945c0.101,2.449,0.376,4.01,0.401,6.346c3.304,0.133,6.032,0.244,9.336,0.379l-0.711-6.549
		C135.684,190.023,132.394,190.047,129.478,189.945z"/>
	<path d="M125.606,163.178c0.139,2.852,0.455,4.664,0.509,7.379c3.545,0.061,6.475,0.113,10.022,0.176l-0.831-7.611
		C132.274,163.088,128.74,163.211,125.606,163.178z"/>
	<path d="M154.99,265.355l-7.474-0.439c0.497,2.617,0.719,3.84,1.205,5.936c2.462,0.289,5.117,0.365,7.819,0.695
		C156.123,269.758,155.265,266.709,154.99,265.355z"/>
	<path d="M154.362,136.92c-0.154,0.004-3.459-0.114-4.496-0.149v6.518c1.781,0.059,2.421,0.08,4.496,0.149V136.92z"
		/>
	<path d="M156.285,247.635c2.723,0.242,5.667,0.225,8.659,0.506c-0.404-2.109-1.261-5.705-1.522-7.309l-8.3-0.207
		C155.596,243.721,155.806,245.166,156.285,247.635z"/>
	<path d="M166.26,150.265c-0.152,0.004-3.459-0.114-4.494-0.149v6.519c1.781,0.059,2.42,0.08,4.494,0.148V150.265z"
		/>
	<path d="M148.555,235.24l-0.469-5.148c-2.528-0.176-5.481-0.275-8.099-0.459c0.02,1.92,0.225,3.15,0.18,4.982
		C143.137,234.836,145.588,235.02,148.555,235.24z"/>
	<path d="M147.202,240.578l-7.965-0.174c0.624,3.068,0.905,4.498,1.499,6.945c2.623,0.232,5.445,0.201,8.328,0.465
		C148.56,245.727,147.542,242.164,147.202,240.578z"/>
	<path d="M149.866,156.236c1.781,0.061,2.421,0.082,4.496,0.15v-6.519c-0.154,0.004-3.459-0.114-4.496-0.149V156.236
		z"/>
	<path d="M151.111,253.1l-7.705-0.324c0.55,2.816,0.798,4.131,1.331,6.383c2.537,0.266,5.271,0.297,8.057,0.6
		C152.341,257.834,151.415,254.557,151.111,253.1z"/>
</g>
</svg>